<?xml version="1.0" encoding="UTF-8" standalone="no"?>
<!-- Created with Inkscape (http://www.inkscape.org/) -->

<svg
   xmlns:osb="http://www.openswatchbook.org/uri/2009/osb"
   xmlns:dc="http://purl.org/dc/elements/1.1/"
   xmlns:cc="http://creativecommons.org/ns#"
   xmlns:rdf="http://www.w3.org/1999/02/22-rdf-syntax-ns#"
   xmlns:svg="http://www.w3.org/2000/svg"
   xmlns="http://www.w3.org/2000/svg"
   xmlns:sodipodi="http://sodipodi.sourceforge.net/DTD/sodipodi-0.dtd"
   xmlns:inkscape="http://www.inkscape.org/namespaces/inkscape"
   width="229.78931mm"
   height="126.55982mm"
   viewBox="0 0 229.78931 126.55981"
   version="1.1"
   id="svg8"
   inkscape:version="0.92.2 5c3e80d, 2017-08-06"
   sodipodi:docname="segment1.svg">
  <sodipodi:namedview
     id="base"
     pagecolor="#ffffff"
     bordercolor="#666666"
     borderopacity="1.0"
     inkscape:pageopacity="0.0"
     inkscape:pageshadow="2"
     inkscape:zoom="1.2632967"
     inkscape:cx="415.02645"
     inkscape:cy="265.35056"
     inkscape:document-units="mm"
     inkscape:current-layer="g883"
     showgrid="true"
     inkscape:window-width="1920"
     inkscape:window-height="963"
     inkscape:window-x="0"
     inkscape:window-y="1"
     inkscape:window-maximized="1"
     inkscape:snap-page="true"
     fit-margin-top="0.5"
     fit-margin-left="0.1"
     fit-margin-right="0.1"
     fit-margin-bottom="0.1"
     showguides="false">
    <inkscape:grid
       id="grid885"
       type="xygrid"
       originx="59.384117"
       originy="-35.72389" />
  </sodipodi:namedview>
  <defs
     id="defs2">
    <marker
       inkscape:isstock="true"
       style="overflow:visible"
       id="marker4983"
       refX="0"
       refY="0"
       orient="auto"
       inkscape:stockid="Arrow1Send">
      <path
         transform="matrix(-0.2,0,0,-0.2,-1.2,0)"
         style="fill:#000080;fill-opacity:1;fill-rule:evenodd;stroke:#000080;stroke-width:1.00000003pt;stroke-opacity:1"
         d="M 0,0 5,-5 -12.5,0 5,5 Z"
         id="path4698"
         inkscape:connector-curvature="0" />
    </marker>
    <marker
       inkscape:isstock="true"
       style="overflow:visible"
       id="marker4960"
       refX="0"
       refY="0"
       orient="auto"
       inkscape:stockid="Arrow1Sstart">
      <path
         transform="matrix(0.2,0,0,0.2,1.2,0)"
         style="fill:#000080;fill-opacity:1;fill-rule:evenodd;stroke:#000080;stroke-width:1.00000003pt;stroke-opacity:1"
         d="M 0,0 5,-5 -12.5,0 5,5 Z"
         id="path4695"
         inkscape:connector-curvature="0" />
    </marker>
    <marker
       inkscape:isstock="true"
       style="overflow:visible"
       id="Arrow1Mstart"
       refX="0"
       refY="0"
       orient="auto"
       inkscape:stockid="Arrow1Mstart">
      <path
         transform="matrix(0.4,0,0,0.4,4,0)"
         style="fill:#000000;fill-opacity:1;fill-rule:evenodd;stroke:#000000;stroke-width:1.00000003pt;stroke-opacity:1"
         d="M 0,0 5,-5 -12.5,0 5,5 Z"
         id="path4689"
         inkscape:connector-curvature="0" />
    </marker>
    <marker
       inkscape:isstock="true"
       style="overflow:visible"
       id="Arrow1Send"
       refX="0"
       refY="0"
       orient="auto"
       inkscape:stockid="Arrow1Send">
      <path
         transform="matrix(-0.2,0,0,-0.2,-1.2,0)"
         style="fill:#000080;fill-opacity:1;fill-rule:evenodd;stroke:#000080;stroke-width:1.00000003pt;stroke-opacity:1"
         d="M 0,0 5,-5 -12.5,0 5,5 Z"
         id="path904"
         inkscape:connector-curvature="0" />
    </marker>
    <marker
       inkscape:isstock="true"
       style="overflow:visible"
       id="Arrow1Sstart"
       refX="0"
       refY="0"
       orient="auto"
       inkscape:stockid="Arrow1Sstart">
      <path
         transform="matrix(0.2,0,0,0.2,1.2,0)"
         style="fill:#000080;fill-opacity:1;fill-rule:evenodd;stroke:#000080;stroke-width:1.00000003pt;stroke-opacity:1"
         d="M 0,0 5,-5 -12.5,0 5,5 Z"
         id="path901"
         inkscape:connector-curvature="0" />
    </marker>
    <linearGradient
       osb:paint="solid"
       id="linearGradient4629">
      <stop
         id="stop4627"
         offset="0"
         style="stop-color:#030000;stop-opacity:1;" />
    </linearGradient>
  </defs>
  <metadata
     id="metadata5">
    <rdf:RDF>
      <cc:Work
         rdf:about="">
        <dc:format>image/svg+xml</dc:format>
        <dc:type
           rdf:resource="http://purl.org/dc/dcmitype/StillImage" />
        <dc:title></dc:title>
      </cc:Work>
    </rdf:RDF>
  </metadata>
  <g
     transform="translate(42.691553,-153.24344)"
     id="layer1"
     inkscape:groupmode="layer"
     inkscape:label="レイヤー 1">
    <g
       id="g1168">
      <g
         transform="rotate(59.411818,81.516294,225.78188)"
         id="g883">
        <g
           id="g5967"
           transform="rotate(1.4876686,54.846324,242.07672)">
          <g
             transform="rotate(-21.835293,78.263676,204.63822)"
             id="g5760">
            <circle
               r="3"
               cy="249.09872"
               cx="119.26225"
               id="path1094"
               style="opacity:0.93999999;fill:#fe0000;fill-opacity:1;stroke:none;stroke-width:2.01239896;stroke-miterlimit:4;stroke-dasharray:none;stroke-opacity:1" />
            <g
               id="g5725">
              <path
                 style="opacity:0.93999999;fill:none;stroke:#f70000;stroke-width:2;stroke-linecap:butt;stroke-linejoin:miter;stroke-miterlimit:4;stroke-dasharray:none;stroke-opacity:1"
                 d="m 29.666917,210.1374 14.605326,-6.49636 1.547809,-14.88684 -7.949945,-13.99337 1.160857,-11.16514 10.271659,-8.33689 11.165134,1.16085 5.895614,15.66075 -2.753223,12.6664 -4.276312,14.69982 -4.276315,16.57071 2.138156,14.43255 5.879931,13.63075 13.363476,-5.61266 -0.53454,-16.83798 4.276312,-19.77794 -3.474503,-16.30345 5.879931,-14.16528 16.036171,-2.93997 0.534537,18.97614 -6.414468,16.57071 2.939965,17.90706 -5.078121,14.96709 6.147199,15.23437 12.027133,9.35443 10.42351,-12.2944 -6.94901,-14.69982 6.41447,-16.30344 14.16528,-8.01809"
                 id="path1104"
                 inkscape:connector-curvature="0"
                 sodipodi:nodetypes="ccccccccccccccccccccccccccccc" />
              <ellipse
                 style="opacity:0.93999999;fill:none;fill-opacity:1;stroke:#000000;stroke-width:3.5;stroke-miterlimit:4;stroke-dasharray:none;stroke-opacity:1"
                 id="path815"
                 cx="23.891594"
                 cy="-210.05096"
                 rx="5.4490309"
                 ry="5.4490304"
                 transform="scale(1,-1)" />
              <circle
                 style="opacity:0.93999999;fill:#fe0000;fill-opacity:1;stroke:none;stroke-width:1.06859899;stroke-miterlimit:4;stroke-dasharray:none;stroke-opacity:1"
                 id="path885"
                 cx="59.347546"
                 cy="199.43292"
                 r="3" />
              <circle
                 style="opacity:0.93999999;fill:#fe0000;fill-opacity:1;stroke:none;stroke-width:0.67871559;stroke-miterlimit:4;stroke-dasharray:none;stroke-opacity:1"
                 id="path1050"
                 cx="66.050774"
                 cy="171.80273"
                 r="3" />
              <circle
                 style="opacity:0.93999999;fill:#fe0000;fill-opacity:1;stroke:none;stroke-width:0.53357321;stroke-miterlimit:4;stroke-dasharray:none;stroke-opacity:1"
                 id="path1052"
                 cx="48.596016"
                 cy="155.78886"
                 r="3" />
              <circle
                 style="opacity:0.93999999;fill:#fe0000;fill-opacity:1;stroke:none;stroke-width:0.55375892;stroke-miterlimit:4;stroke-dasharray:none;stroke-opacity:1"
                 id="path1054"
                 cx="63.135643"
                 cy="244.0206"
                 r="3" />
              <circle
                 style="opacity:0.93999999;fill:#fe0000;fill-opacity:1;stroke:none;stroke-width:0.59285909;stroke-miterlimit:4;stroke-dasharray:none;stroke-opacity:1"
                 id="path1056"
                 cx="63.670181"
                 cy="184.68677"
                 r="3" />
              <circle
                 style="opacity:0.93999999;fill:#fe0000;fill-opacity:1;stroke:none;stroke-width:0.68873692;stroke-miterlimit:4;stroke-dasharray:none;stroke-opacity:1"
                 id="path1058"
                 cx="59.863766"
                 cy="156.83322"
                 r="3" />
              <circle
                 style="opacity:0.93999999;fill:#fe0000;fill-opacity:1;stroke:none;stroke-width:0.38241288;stroke-miterlimit:4;stroke-dasharray:none;stroke-opacity:1"
                 id="path1060"
                 cx="57.255707"
                 cy="230.65714"
                 r="3" />
              <circle
                 style="opacity:0.93999999;fill:#fe0000;fill-opacity:1;stroke:none;stroke-width:0.28579083;stroke-miterlimit:4;stroke-dasharray:none;stroke-opacity:1"
                 id="path1062"
                 cx="39.792187"
                 cy="163.90831"
                 r="3" />
              <circle
                 style="opacity:0.93999999;fill:#fe0000;fill-opacity:1;stroke:none;stroke-width:0.19212352;stroke-miterlimit:4;stroke-dasharray:none;stroke-opacity:1"
                 id="path1064"
                 cx="54.850292"
                 cy="215.95728"
                 r="3" />
              <circle
                 style="opacity:0.93999999;fill:#fe0000;fill-opacity:1;stroke:none;stroke-width:0.39628452;stroke-miterlimit:4;stroke-dasharray:none;stroke-opacity:1"
                 id="path1066"
                 cx="38.467289"
                 cy="174.80566"
                 r="3" />
              <circle
                 style="opacity:0.93999999;fill:#fe0000;fill-opacity:1;stroke:none;stroke-width:0.32512867;stroke-miterlimit:4;stroke-dasharray:none;stroke-opacity:1"
                 id="path1068"
                 cx="45.482372"
                 cy="188.83455"
                 r="3" />
              <circle
                 style="opacity:0.93999999;fill:#fe0000;fill-opacity:1;stroke:none;stroke-width:0.49676895;stroke-miterlimit:4;stroke-dasharray:none;stroke-opacity:1"
                 id="path1070"
                 cx="44.272243"
                 cy="203.64104"
                 r="3" />
              <path
                 style="opacity:0.93999999;fill:none;stroke:#000000;stroke-width:3.5;stroke-linecap:butt;stroke-linejoin:miter;stroke-miterlimit:4;stroke-dasharray:none;stroke-opacity:1"
                 d="M 29.666917,210.1374 H 132.83295"
                 id="path1072"
                 inkscape:connector-curvature="0" />
              <circle
                 style="opacity:0.93999999;fill:#fe0000;fill-opacity:1;stroke:none;stroke-width:1.2999655;stroke-miterlimit:4;stroke-dasharray:none;stroke-opacity:1"
                 id="path1074"
                 cx="99.217033"
                 cy="187.35947"
                 r="3" />
              <circle
                 style="opacity:0.93999999;fill:#fe0000;fill-opacity:1;stroke:none;stroke-width:1.4551686;stroke-miterlimit:4;stroke-dasharray:none;stroke-opacity:1"
                 id="path1076"
                 cx="92.802567"
                 cy="203.93016"
                 r="3" />
              <circle
                 style="opacity:0.93999999;fill:#fe0000;fill-opacity:1;stroke:none;stroke-width:1.76438463;stroke-miterlimit:4;stroke-dasharray:none;stroke-opacity:1"
                 id="path1078"
                 cx="82.646317"
                 cy="171.32329"
                 r="3" />
              <circle
                 style="opacity:0.93999999;fill:#fe0000;fill-opacity:1;stroke:none;stroke-width:1.75656581;stroke-miterlimit:4;stroke-dasharray:none;stroke-opacity:1"
                 id="path1080"
                 cx="75.964584"
                 cy="221.30267"
                 r="3" />
              <circle
                 style="opacity:0.93999999;fill:#fe0000;fill-opacity:1;stroke:none;stroke-width:1.90640771;stroke-miterlimit:4;stroke-dasharray:none;stroke-opacity:1"
                 id="path1082"
                 cx="76.766388"
                 cy="185.48857"
                 r="3" />
              <circle
                 style="opacity:0.93999999;fill:#fe0000;fill-opacity:1;stroke:none;stroke-width:1.40125477;stroke-miterlimit:4;stroke-dasharray:none;stroke-opacity:1"
                 id="path1084"
                 cx="80.240891"
                 cy="201.79201"
                 r="3" />
              <circle
                 style="opacity:0.93999999;fill:#fe0000;fill-opacity:1;stroke:none;stroke-width:1.62295496;stroke-miterlimit:4;stroke-dasharray:none;stroke-opacity:1"
                 id="path1086"
                 cx="76.499123"
                 cy="238.40793"
                 r="3" />
              <circle
                 style="opacity:0.93999999;fill:#fe0000;fill-opacity:1;stroke:none;stroke-width:2.18504953;stroke-miterlimit:4;stroke-dasharray:none;stroke-opacity:1"
                 id="path1088"
                 cx="118.99498"
                 cy="218.36272"
                 r="3" />
              <circle
                 style="opacity:0.93999999;fill:#fe0000;fill-opacity:1;stroke:none;stroke-width:1.657987;stroke-miterlimit:4;stroke-dasharray:none;stroke-opacity:1"
                 id="path1090"
                 cx="98.68251"
                 cy="168.38333"
                 r="3" />
              <circle
                 style="opacity:0.93999999;fill:#fe0000;fill-opacity:1;stroke:none;stroke-width:2.06273985;stroke-miterlimit:4;stroke-dasharray:none;stroke-opacity:1"
                 id="path1092"
                 cx="112.31323"
                 cy="234.3989"
                 r="3" />
              <circle
                 style="opacity:0.93999999;fill:#fe0000;fill-opacity:1;stroke:none;stroke-width:2.05791926;stroke-miterlimit:4;stroke-dasharray:none;stroke-opacity:1"
                 id="path1096"
                 cx="108.83874"
                 cy="261.39313"
                 r="3" />
              <circle
                 style="opacity:0.93999999;fill:#fe0000;fill-opacity:1;stroke:none;stroke-width:2.08436036;stroke-miterlimit:4;stroke-dasharray:none;stroke-opacity:1"
                 id="path1098"
                 cx="95.742523"
                 cy="221.83723"
                 r="3" />
              <circle
                 style="opacity:0.93999999;fill:#fe0000;fill-opacity:1;stroke:none;stroke-width:1.56074965;stroke-miterlimit:4;stroke-dasharray:none;stroke-opacity:1"
                 id="path1100"
                 cx="90.664406"
                 cy="236.80434"
                 r="3" />
              <circle
                 style="opacity:0.93999999;fill:#fe0000;fill-opacity:1;stroke:none;stroke-width:3.1818819;stroke-miterlimit:4;stroke-dasharray:none;stroke-opacity:1"
                 id="path1102"
                 cx="96.8116"
                 cy="252.03868"
                 r="3" />
              <path
                 style="opacity:0.93999999;fill:none;stroke:#000000;stroke-width:3.5;stroke-linecap:butt;stroke-linejoin:miter;stroke-miterlimit:4;stroke-dasharray:none;stroke-opacity:1"
                 d="m 123.90033,182.81231 11.19046,21.64742"
                 id="path1110"
                 inkscape:connector-curvature="0" />
              <circle
                 style="opacity:0.93999999;fill:none;fill-opacity:1;stroke:#000000;stroke-width:3.5;stroke-linecap:round;stroke-linejoin:round;stroke-miterlimit:4;stroke-dasharray:none;stroke-opacity:1"
                 id="path1112"
                 cx="137.8692"
                 cy="210.00516"
                 r="5.4948368" />
            </g>
          </g>
          <g
             transform="translate(-24.090873,43.196107)"
             id="g5692">
            <path
               style="opacity:0.93999999;fill:none;fill-opacity:1;stroke:#000000;stroke-width:3.5;stroke-linecap:round;stroke-linejoin:miter;stroke-miterlimit:4;stroke-dasharray:none;stroke-opacity:1"
               d="m 54.532124,192.65838 17.678109,99.18909"
               id="path126"
               inkscape:connector-curvature="0" />
            <circle
               style="opacity:0.93999999;fill:none;fill-opacity:1;stroke:#000000;stroke-width:3.5;stroke-linecap:round;stroke-linejoin:round;stroke-miterlimit:4;stroke-dasharray:none;stroke-opacity:1"
               id="path4623"
               cx="73.571518"
               cy="298.14102"
               r="5.4259129" />
          </g>
        </g>
        <path
           inkscape:connector-curvature="0"
           id="path887"
           d="M 21.635875,237.63099 35.566034,335.3925"
           style="opacity:0.93999999;fill:none;fill-opacity:1;stroke:#000080;stroke-width:2;stroke-linecap:round;stroke-linejoin:miter;stroke-miterlimit:4;stroke-dasharray:none;stroke-opacity:1;marker-start:url(#Arrow1Sstart);marker-end:url(#Arrow1Send)" />
        <g
           word-spacing="normal"
           letter-spacing="normal"
           font-size-adjust="none"
           font-stretch="normal"
           font-weight="normal"
           font-variant="normal"
           font-style="normal"
           stroke-miterlimit="10.433"
           xml:space="preserve"
           transform="matrix(0.16085932,-0.23825553,-0.23825553,-0.16085932,88.414912,338.95225)"
           id="content"
           style="font-style:normal;font-variant:normal;font-weight:normal;font-stretch:normal;letter-spacing:normal;word-spacing:normal;text-anchor:start;fill:#000080;fill-opacity:1;fill-rule:evenodd;stroke:#000080;stroke-width:0.99835044;stroke-linecap:butt;stroke-linejoin:miter;stroke-miterlimit:10.43299961;stroke-dasharray:none;stroke-dashoffset:0;stroke-opacity:1"><path
             id="path4614"
             d="m 467.43,440.23 v 0 0.01 0 0.01 l -0.01,0.02 v 0.01 0.02 0.02 0.02 l -0.01,0.02 v 0.02 l -0.01,0.02 -0.01,0.02 -0.01,0.03 -0.01,0.02 -0.01,0.03 -0.01,0.02 -0.02,0.03 -0.02,0.02 -0.02,0.02 -0.02,0.03 -0.01,0.01 -0.02,0.01 -0.01,0.01 -0.01,0.01 -0.02,0.01 -0.01,0.01 -0.02,0.01 -0.01,0.01 -0.02,0.01 -0.02,0.01 h -0.02 l -0.02,0.01 -0.02,0.01 h -0.02 l -0.02,0.01 -0.02,0.01 h -0.03 -0.02 l -0.03,0.01 h -0.02 -0.03 l -0.03,0.01 h -0.03 -0.02 c -1.16,0 -4.79,-0.41 -6.08,-0.5 -0.41,-0.05 -0.96,-0.1 -0.96,-1 0,-0.6 0.46,-0.6 1.21,-0.6 2.39,0 2.48,-0.34 2.48,-0.84 0,-0.36 -0.45,-2.05 -0.7,-3.09 l -4.08,-16.24 c -0.59,-2.5 -0.8,-3.3 -0.8,-5.03 0,-4.73 2.64,-7.83 6.33,-7.83 v 1.1 c -1.7,0 -3.34,1.34 -3.34,5.03 0,0.95 0,1.89 0.79,5.03 l 1.1,4.59 c 0.3,1.1 0.3,1.19 0.75,1.74 2.44,3.23 4.69,3.98 5.98,3.98 1.8,0 3.14,-1.48 3.14,-4.69 0,-2.93 -1.65,-8.65 -2.54,-10.56 -1.64,-3.33 -3.94,-5.12 -5.88,-5.12 v -1.1 c 5.88,0 12,7.42 12,14.6 0,4.53 -2.64,7.96 -6.62,7.96 -2.28,0 -4.33,-1.43 -5.83,-2.98 z"
             inkscape:connector-curvature="0"
             style="fill:#000080;fill-opacity:1;stroke:#000080;stroke-width:0.99835044;stroke-miterlimit:10.43299961;stroke-dasharray:none;stroke-opacity:1" /></g>        <path
           style="fill:#000080;fill-opacity:1;stroke:#000080;stroke-width:2;stroke-linecap:butt;stroke-linejoin:miter;stroke-miterlimit:4;stroke-dasharray:none;stroke-opacity:1;marker-start:url(#marker4960);marker-end:url(#marker4983)"
           d="m 52.080671,161.89619 7.982811,10.32758"
           id="path4681"
           inkscape:connector-curvature="0"
           sodipodi:nodetypes="cc"
           inkscape:transform-center-x="-1.0234558"
           inkscape:transform-center-y="-1.2760407" />
        <g
           style="fill:#000080;fill-opacity:1;stroke:#000080;stroke-opacity:1"
           transform="matrix(0.91470504,-1.3548082,1.3548082,0.91470504,-73.152434,329.00621)"
           id="g5527">
          <g
             style="font-style:normal;font-variant:normal;font-weight:normal;font-stretch:normal;letter-spacing:normal;word-spacing:normal;text-anchor:start;fill:#000080;fill-opacity:1;fill-rule:evenodd;stroke:#000080;stroke-linecap:butt;stroke-linejoin:miter;stroke-miterlimit:10.43299961;stroke-dasharray:none;stroke-dashoffset:0;stroke-opacity:1"
             id="g5525"
             transform="matrix(0.17585923,0,0,-0.17585923,-30.775365,105.17686)"
             xml:space="preserve"
             stroke-miterlimit="10.433"
             font-style="normal"
             font-variant="normal"
             font-weight="normal"
             font-stretch="normal"
             font-size-adjust="none"
             letter-spacing="normal"
             word-spacing="normal"><path
               style="fill:#000080;fill-opacity:1;stroke:#000080;stroke-width:0;stroke-opacity:1"
               inkscape:connector-curvature="0"
               d="m 474.1,425.03 -0.09,0.17 -0.09,0.17 -0.09,0.16 -0.09,0.16 -0.1,0.16 -0.1,0.16 -0.11,0.15 -0.11,0.14 -0.11,0.15 -0.12,0.13 -0.12,0.14 -0.12,0.13 -0.13,0.12 -0.13,0.12 -0.14,0.11 -0.14,0.11 -0.14,0.11 -0.15,0.09 -0.15,0.1 -0.15,0.08 -0.16,0.08 -0.17,0.08 -0.17,0.06 -0.17,0.07 -0.17,0.05 -0.18,0.05 -0.19,0.04 -0.19,0.03 -0.19,0.03 -0.2,0.02 -0.2,0.01 h -0.21 l 0.05,-1.09 c 3.23,0 3.93,-4.08 3.93,-4.37 0,-0.32 -0.09,-0.61 -0.14,-0.86 l -2.5,-9.77 c -0.25,-0.89 -0.25,-0.98 -1,-1.84 -2.18,-2.74 -4.23,-3.53 -5.62,-3.53 -2.49,0 -3.19,2.73 -3.19,4.68 0,2.49 1.59,8.61 2.74,10.91 1.54,2.94 3.79,4.78 5.78,4.78 l -0.05,1.09 c -5.83,0 -12,-7.31 -12,-14.59 0,-4.69 2.73,-7.97 6.62,-7.97 0.99,0 3.49,0.21 6.47,3.74 0.41,-2.1 2.14,-3.74 4.53,-3.74 1.75,0 2.9,1.14 3.69,2.74 0.85,1.79 1.5,4.84 1.5,4.93 0,0.5 -0.45,0.5 -0.59,0.5 -0.5,0 -0.55,-0.2 -0.7,-0.9 -0.85,-3.24 -1.75,-6.17 -3.79,-6.17 -1.34,0 -1.5,1.29 -1.5,2.29 0,1.1 0.1,1.49 0.64,3.69 0.57,2.09 0.66,2.59 1.11,4.48 l 1.79,6.97 c 0.35,1.39 0.35,1.5 0.35,1.69 0,0.86 -0.6,1.36 -1.45,1.36 -1.19,0 -1.94,-1.11 -2.09,-2.2 z"
               id="path5523" /></g>        </g>
        <text
           xml:space="preserve"
           style="font-style:normal;font-variant:normal;font-weight:normal;font-stretch:normal;font-size:10.58333302px;line-height:1.25;font-family:'.Helvetica Neue DeskInterface';-inkscape-font-specification:'.Helvetica Neue DeskInterface';letter-spacing:0px;word-spacing:0px;fill:#000000;fill-opacity:1;stroke:none;stroke-width:0.26458335"
           x="-238.13564"
           y="211.79565"
           id="text5596"
           transform="rotate(-59.411818)"><tspan
             sodipodi:role="line"
             id="tspan5594"
             x="-238.13564"
             y="211.79565"
             style="stroke-width:0.26458335">Primitive Path</tspan></text>
        <text
           xml:space="preserve"
           style="font-style:normal;font-variant:normal;font-weight:normal;font-stretch:normal;font-size:10.58333302px;line-height:1.25;font-family:'.Helvetica Neue DeskInterface';-inkscape-font-specification:'.Helvetica Neue DeskInterface';letter-spacing:0px;word-spacing:0px;fill:#000000;fill-opacity:1;stroke:none;stroke-width:0.26458335"
           x="-234.0872"
           y="130.72777"
           id="text5600"
           transform="rotate(-59.411818)"><tspan
             sodipodi:role="line"
             id="tspan5598"
             x="-234.0872"
             y="130.72777"
             style="stroke-width:0.26458335">Slip-link</tspan></text>
        <text
           xml:space="preserve"
           style="font-style:normal;font-variant:normal;font-weight:normal;font-stretch:normal;font-size:10.58333302px;line-height:1.25;font-family:'.Helvetica Neue DeskInterface';-inkscape-font-specification:'.Helvetica Neue DeskInterface';letter-spacing:0px;word-spacing:0px;fill:#ff0000;fill-opacity:1;stroke:#ff0000;stroke-width:0.26458335;stroke-opacity:1"
           x="-81.145935"
           y="162.67616"
           id="text5604"
           transform="rotate(-59.411818)"><tspan
             sodipodi:role="line"
             id="tspan5602"
             x="-81.145935"
             y="162.67616"
             style="fill:#ff0000;fill-opacity:1;stroke:#ff0000;stroke-width:0.26458335;stroke-opacity:1">Micelle</tspan></text>
        <path
           style="fill:none;stroke:#000080;stroke-width:1.5;stroke-linecap:butt;stroke-linejoin:miter;stroke-miterlimit:4;stroke-dasharray:1.5, 1.5;stroke-dashoffset:0;stroke-opacity:1"
           d="m 10.81083,231.62702 10.87208,-2.79387"
           id="path5606"
           inkscape:connector-curvature="0" />
        <path
           inkscape:connector-curvature="0"
           id="path5608"
           d="m 91.643078,171.83527 3.771947,-19.8997"
           style="fill:none;stroke:#000080;stroke-width:1.5;stroke-linecap:butt;stroke-linejoin:miter;stroke-miterlimit:4;stroke-dasharray:1.5, 1.5;stroke-dashoffset:0;stroke-opacity:1"
           sodipodi:nodetypes="cc" />
        <path
           sodipodi:nodetypes="cc"
           style="fill:none;stroke:#000080;stroke-width:1.5;stroke-linecap:butt;stroke-linejoin:miter;stroke-miterlimit:4;stroke-dasharray:1.5, 1.5;stroke-dashoffset:0;stroke-opacity:1"
           d="m 39.422068,276.81611 34.292566,-1.85834"
           id="path5610"
           inkscape:connector-curvature="0" />
        <text
           xml:space="preserve"
           style="font-style:normal;font-variant:normal;font-weight:normal;font-stretch:normal;font-size:10.58333302px;line-height:1.25;font-family:'.Helvetica Neue DeskInterface';-inkscape-font-specification:'.Helvetica Neue DeskInterface';letter-spacing:0px;word-spacing:0px;fill:#000000;fill-opacity:1;stroke:none;stroke-width:0.26458335"
           x="-100.30745"
           y="139.08992"
           id="text9079"
           transform="rotate(-59.411818)"><tspan
             sodipodi:role="line"
             id="tspan9077"
             x="-100.30745"
             y="139.08992"
             style="fill:#000080;fill-opacity:1;stroke:#000080;stroke-width:0.26458335;stroke-opacity:1">: Segment</tspan></text>
      </g>
    </g>
  </g>
</svg>
